<mxfile host="app.diagrams.net" agent="Mozilla/5.0 (Windows NT 10.0; Win64; x64) AppleWebKit/537.36 (KHTML, like Gecko) Chrome/137.0.0.0 Safari/537.36" version="28.0.3">
  <diagram name="Page-1" id="3rPb7qBMAKyvQT90-od-">
    <mxGraphModel dx="1442" dy="962" grid="0" gridSize="10" guides="1" tooltips="1" connect="1" arrows="1" fold="1" page="0" pageScale="1" pageWidth="827" pageHeight="1169" math="0" shadow="0">
      <root>
        <mxCell id="0" />
        <mxCell id="1" parent="0" />
        <mxCell id="Fkyo--zW_rJZyUsq1LzP-1" value="Admin" style="shape=umlActor;verticalLabelPosition=bottom;verticalAlign=top;html=1;outlineConnect=0;" vertex="1" parent="1">
          <mxGeometry x="-193" y="-67" width="30" height="60" as="geometry" />
        </mxCell>
        <mxCell id="Fkyo--zW_rJZyUsq1LzP-2" value="Ajouter un nouveau patient" style="ellipse;whiteSpace=wrap;html=1;" vertex="1" parent="1">
          <mxGeometry x="9" y="-275" width="139" height="88" as="geometry" />
        </mxCell>
        <mxCell id="Fkyo--zW_rJZyUsq1LzP-3" value="" style="endArrow=none;html=1;rounded=0;entryX=0.012;entryY=0.648;entryDx=0;entryDy=0;entryPerimeter=0;" edge="1" parent="1" target="Fkyo--zW_rJZyUsq1LzP-2">
          <mxGeometry width="50" height="50" relative="1" as="geometry">
            <mxPoint x="-176" y="-33" as="sourcePoint" />
            <mxPoint x="66" y="-137" as="targetPoint" />
          </mxGeometry>
        </mxCell>
        <mxCell id="Fkyo--zW_rJZyUsq1LzP-4" value="Modifier patients" style="ellipse;whiteSpace=wrap;html=1;" vertex="1" parent="1">
          <mxGeometry x="18" y="-161" width="139" height="94" as="geometry" />
        </mxCell>
        <mxCell id="Fkyo--zW_rJZyUsq1LzP-5" value="Supprimer patients" style="ellipse;whiteSpace=wrap;html=1;" vertex="1" parent="1">
          <mxGeometry x="14" y="-49" width="142" height="93" as="geometry" />
        </mxCell>
        <mxCell id="Fkyo--zW_rJZyUsq1LzP-6" value="GÃ©rer les dossier a la charge&amp;nbsp; du personnel" style="ellipse;whiteSpace=wrap;html=1;" vertex="1" parent="1">
          <mxGeometry x="9" y="78" width="132" height="80" as="geometry" />
        </mxCell>
        <mxCell id="Fkyo--zW_rJZyUsq1LzP-7" value="" style="endArrow=none;html=1;rounded=0;entryX=0;entryY=0.5;entryDx=0;entryDy=0;" edge="1" parent="1" target="Fkyo--zW_rJZyUsq1LzP-4">
          <mxGeometry width="50" height="50" relative="1" as="geometry">
            <mxPoint x="-172" y="-34" as="sourcePoint" />
            <mxPoint x="86" y="-76" as="targetPoint" />
          </mxGeometry>
        </mxCell>
        <mxCell id="Fkyo--zW_rJZyUsq1LzP-8" value="" style="endArrow=none;html=1;rounded=0;entryX=-0.011;entryY=0.434;entryDx=0;entryDy=0;entryPerimeter=0;" edge="1" parent="1" target="Fkyo--zW_rJZyUsq1LzP-5">
          <mxGeometry width="50" height="50" relative="1" as="geometry">
            <mxPoint x="-172" y="-30" as="sourcePoint" />
            <mxPoint x="9" y="-101" as="targetPoint" />
          </mxGeometry>
        </mxCell>
        <mxCell id="Fkyo--zW_rJZyUsq1LzP-9" value="" style="endArrow=none;html=1;rounded=0;entryX=0.02;entryY=0.327;entryDx=0;entryDy=0;entryPerimeter=0;" edge="1" parent="1" target="Fkyo--zW_rJZyUsq1LzP-6">
          <mxGeometry width="50" height="50" relative="1" as="geometry">
            <mxPoint x="-175" y="-28" as="sourcePoint" />
            <mxPoint x="9" y="-7" as="targetPoint" />
          </mxGeometry>
        </mxCell>
        <mxCell id="Fkyo--zW_rJZyUsq1LzP-10" value="" style="swimlane;startSize=0;" vertex="1" parent="1">
          <mxGeometry x="-25" y="-304" width="200" height="491" as="geometry" />
        </mxCell>
      </root>
    </mxGraphModel>
  </diagram>
</mxfile>
